<svg xmlns="http://www.w3.org/2000/svg" preserveAspectRatio="xMidYMid" width="80" height="40" viewBox="0 0 80 40"><defs><style>.cls-2{fill:#dfb98f;filter:url(#color-overlay-1)}</style><filter id="color-overlay-1" filterUnits="userSpaceOnUse"><feFlood flood-color="#fb8c00" flood-opacity="1"/><feComposite operator="in" in2="SourceGraphic"/><feBlend in2="SourceGraphic" result="colorOverlay"/></filter></defs><path d="M79.677 21.092L64.002 36.794c-.444.444-1.449.159-2.245-.638-.795-.797-1.08-1.803-.636-2.248l15.676-15.702c.444-.444 1.448-.159 2.244.638.795.797 1.08 1.803.636 2.248zM39.906 40a2 2 0 0 1-2-2V2a2 2 0 0 1 4 0v36a2 2 0 0 1-2 2zm-24.289-3.077L.225 21.531c-.436-.436-.156-1.423.625-2.204.781-.781 1.768-1.061 2.203-.625l15.392 15.392c.436.436.157 1.423-.625 2.204-.781.781-1.767 1.061-2.203.625z" id="path-1" class="cls-2" fill-rule="evenodd"/></svg>