<?xml version="1.0" encoding="UTF-8"?><!DOCTYPE svg PUBLIC "-//W3C//DTD SVG 1.1//EN" "http://www.w3.org/Graphics/SVG/1.1/DTD/svg11.dtd"><svg xmlns="http://www.w3.org/2000/svg"><symbol id="earth" viewBox="0 0 512 512"><path fill="#231F20" d="M429.2 82.8C383 36.5 321.4 11 256 11S129 36.5 82.8 82.8 11 190.6 11 256s25.5 127 71.8 173.2S190.6 501 256 501s127-25.5 173.2-71.8S501 321.4 501 256s-25.5-127-71.8-173.2zM478.8 245h-95c-.9-37.8-6.2-74.2-15.5-106.5 18.1-9.3 35-21 50.5-34.8 35 37.4 57.3 86.8 60 141.3zM267 267h94.9c-.8 34.8-5.6 68.1-13.9 97.9-25.6-10.3-52.9-16.3-81-17.6V267zM403 88.4c-12.8 11.3-26.8 20.9-41.6 28.9-3.8-10.6-8.1-20.6-12.9-30-9.5-18.8-20.3-34.2-32.2-46 32.5 9.1 62 25.4 86.7 47.1zm-136-52c22.9 5.1 44.5 26.2 61.9 60.6 4.7 9.3 8.9 19.2 12.6 29.7-23.5 9.7-48.6 15.4-74.5 16.7v-107zm81.1 111.4c8.2 29.6 12.9 62.7 13.7 97.3H267v-79.6c28.2-1.3 55.5-7.4 81.1-17.7zM245 245h-94.9c.8-34.6 5.5-67.7 13.7-97.3 25.6 10.4 53 16.4 81.1 17.6V245zm.1-208.6v107c-25.9-1.3-51.1-7-74.5-16.7 3.7-10.5 7.9-20.4 12.6-29.7 17.4-34.4 39-55.5 61.9-60.6zm-49.3 4.9c-11.9 11.8-22.7 27.3-32.2 46-4.7 9.4-9 19.4-12.9 30-14.8-8-28.7-17.6-41.6-28.9 24.7-21.7 54.2-38 86.7-47.1zM93.3 103.7c15.5 13.8 32.4 25.4 50.5 34.8-9.3 32.4-14.7 68.7-15.5 106.5h-95c2.7-54.5 25-103.9 60-141.3zM33.3 267h95c.9 38.1 6.3 74.6 15.7 107.1-18 9.3-34.9 20.8-50.3 34.6-35.3-37.5-57.7-87-60.4-141.7zm76.2 157c12.8-11.2 26.7-20.8 41.4-28.7 3.8 10.3 8 20.2 12.7 29.4 9.5 18.8 20.3 34.2 32.2 46.1-32.3-9.1-61.7-25.3-86.3-46.8zm135.6 51.6c-22.9-5.1-44.5-26.2-61.9-60.6-4.6-9.1-8.7-18.8-12.4-29.1 23.4-9.7 48.5-15.4 74.3-16.6v106.3zm-81-110.7c-8.3-29.8-13.1-63.1-13.9-97.9h94.9v80.3c-28.1 1.2-55.4 7.2-81 17.6zm103 110.7V369.3c25.8 1.3 50.9 6.9 74.3 16.6-3.7 10.3-7.8 20-12.4 29.1-17.4 34.4-39 55.5-61.9 60.6zm49.3-4.9c11.9-11.8 22.7-27.3 32.2-46.1 4.7-9.2 8.9-19.1 12.7-29.4 14.7 7.9 28.6 17.5 41.4 28.7-24.6 21.6-54 37.8-86.3 46.8zm102.2-62c-15.4-13.7-32.3-25.3-50.3-34.6 9.4-32.5 14.8-69.1 15.7-107.1h95c-2.8 54.7-25.2 104.2-60.4 141.7z"/></symbol><symbol id="enter" viewBox="0 -10 490.66667 490"><path d="M325.332 251H16c-8.832 0-16-7.168-16-16s7.168-16 16-16h309.332c8.832 0 16 7.168 16 16s-7.168 16-16 16zm0 0"/><path d="M240 336.332c-4.098 0-8.191-1.555-11.309-4.691-6.25-6.25-6.25-16.383 0-22.637l74.028-74.024-74.028-74.027c-6.25-6.25-6.25-16.387 0-22.637 6.254-6.25 16.387-6.25 22.637 0l85.332 85.336c6.25 6.25 6.25 16.383 0 22.633l-85.332 85.332A15.88 15.88 0 0 1 240 336.332zm0 0"/><path d="M256 469.668c-97.09 0-182.805-58.41-218.41-148.824-3.242-8.192.808-17.492 9.023-20.735 8.192-3.199 17.516.79 20.758 9.047C98.113 387.215 172.161 437.668 256 437.668c111.742 0 202.668-90.926 202.668-202.668S367.742 32.332 256 32.332c-83.84 0-157.887 50.453-188.629 128.512-3.266 8.258-12.566 12.246-20.758 9.047-8.215-3.243-12.265-12.543-9.023-20.735C73.195 58.742 158.91.332 256 .332 385.387.332 490.668 105.613 490.668 235S385.387 469.668 256 469.668zm0 0"/></symbol><symbol id="plus" viewBox="0 0 400 400"><path d="M199.995 0C89.716 0 0 89.72 0 200c0 110.279 89.716 200 199.995 200C310.277 400 400 310.279 400 200 400 89.72 310.277 0 199.995 0zm0 373.77C104.182 373.77 26.23 295.816 26.23 200c0-95.817 77.951-173.77 173.765-173.77 95.817 0 173.772 77.953 173.772 173.77.002 95.816-77.955 173.77-173.772 173.77z"/><path d="M279.478 186.884h-66.363V120.52c0-7.243-5.872-13.115-13.115-13.115s-13.115 5.873-13.115 13.115v66.368h-66.361c-7.242 0-13.115 5.873-13.115 13.115 0 7.243 5.873 13.115 13.115 13.115h66.358v66.362c0 7.242 5.872 13.114 13.115 13.114 7.242 0 13.115-5.872 13.115-13.114v-66.365h66.367c7.241 0 13.114-5.873 13.114-13.115 0-7.243-5.873-13.116-13.115-13.116z"/></symbol><symbol id="watch" viewBox="0 0 31.059 31.059"><path d="M15.529 31.059C6.966 31.059 0 24.093 0 15.529 0 6.967 6.966 0 15.529 0s15.529 6.967 15.529 15.529c.001 8.564-6.966 15.53-15.529 15.53zm0-29.284c-7.584 0-13.754 6.17-13.754 13.754 0 7.585 6.17 13.755 13.754 13.755s13.754-6.17 13.754-13.755c.001-7.584-6.169-13.754-13.754-13.754z"/><path d="M20.292 21.179a.883.883 0 0 1-.628-.26l-4.762-4.762a.886.886 0 0 1-.26-.628V5.454a.887.887 0 0 1 1.775 0v9.708l4.502 4.502a.887.887 0 0 1-.627 1.515z"/></symbol></svg>